<svg xmlns="http://www.w3.org/2000/svg" xmlns:xlink="http://www.w3.org/1999/xlink" width="4000" zoomAndPan="magnify" viewBox="0 0 3000 749.999995" height="1000" preserveAspectRatio="xMidYMid meet" version="1.0"><defs><g/></defs><g fill="#838284" fill-opacity="1"><g transform="translate(246.382457, 534.166281)"><g><path d="M 36.890625 -507.34375 L 218.3125 -507.34375 C 267.09375 -507.34375 306.859375 -494.320312 337.609375 -468.28125 C 368.359375 -442.25 383.734375 -405.046875 383.734375 -356.671875 C 383.734375 -319.367188 374.40625 -288.109375 355.75 -262.890625 C 337.09375 -237.679688 311.773438 -219.953125 279.796875 -209.703125 L 454.453125 0 L 307.46875 0 L 152.515625 -200.46875 L 152.515625 0 L 36.890625 0 Z M 152.515625 -282.265625 L 166.03125 -282.265625 C 176.695312 -282.265625 185.71875 -282.46875 193.09375 -282.875 C 200.476562 -283.289062 208.882812 -284.726562 218.3125 -287.1875 C 227.738281 -289.644531 235.320312 -293.128906 241.0625 -297.640625 C 246.800781 -302.148438 251.71875 -308.707031 255.8125 -317.3125 C 259.914062 -325.925781 261.96875 -336.378906 261.96875 -348.671875 C 261.96875 -360.972656 259.914062 -371.425781 255.8125 -380.03125 C 251.71875 -388.644531 246.800781 -395.207031 241.0625 -399.71875 C 235.320312 -404.226562 227.738281 -407.710938 218.3125 -410.171875 C 208.882812 -412.628906 200.476562 -414.0625 193.09375 -414.46875 C 185.71875 -414.882812 176.695312 -415.09375 166.03125 -415.09375 L 152.515625 -415.09375 Z M 152.515625 -282.265625 "/></g></g></g><g fill="#838284" fill-opacity="1"><g transform="translate(628.856116, 534.166281)"><g><path d="M 47.34375 -491.34375 C 60.0625 -504.050781 75.234375 -510.40625 92.859375 -510.40625 C 110.484375 -510.40625 125.648438 -504.050781 138.359375 -491.34375 C 151.066406 -478.632812 157.421875 -463.460938 157.421875 -445.828125 C 157.421875 -428.203125 151.066406 -413.035156 138.359375 -400.328125 C 125.648438 -387.617188 110.484375 -381.265625 92.859375 -381.265625 C 75.234375 -381.265625 60.0625 -387.617188 47.34375 -400.328125 C 34.632812 -413.035156 28.28125 -428.203125 28.28125 -445.828125 C 28.28125 -463.460938 34.632812 -478.632812 47.34375 -491.34375 Z M 36.890625 -315.46875 L 36.890625 0 L 145.75 0 L 145.75 -315.46875 Z M 36.890625 -315.46875 "/></g></g></g><g fill="#838284" fill-opacity="1"><g transform="translate(756.751288, 534.166281)"><g><path d="M 116.84375 -315.46875 L 193.703125 -143.90625 L 270.578125 -315.46875 L 399.71875 -315.46875 L 230.609375 0 L 156.8125 0 L -12.296875 -315.46875 Z M 116.84375 -315.46875 "/></g></g></g><g fill="#838284" fill-opacity="1"><g transform="translate(1086.341448, 534.166281)"><g><path d="M 356.0625 -142.671875 L 127.296875 -142.671875 C 127.296875 -120.535156 134.46875 -104.132812 148.8125 -93.46875 C 163.164062 -82.8125 178.75 -77.484375 195.5625 -77.484375 C 213.1875 -77.484375 227.125 -79.835938 237.375 -84.546875 C 247.625 -89.265625 259.304688 -98.59375 272.421875 -112.53125 L 351.140625 -73.171875 C 318.335938 -18.242188 263.8125 9.21875 187.5625 9.21875 C 140 9.21875 99.203125 -7.070312 65.171875 -39.65625 C 31.148438 -72.25 14.140625 -111.503906 14.140625 -157.421875 C 14.140625 -203.335938 31.148438 -242.691406 65.171875 -275.484375 C 99.203125 -308.285156 140 -324.6875 187.5625 -324.6875 C 237.570312 -324.6875 278.257812 -310.234375 309.625 -281.328125 C 340.988281 -252.429688 356.671875 -211.128906 356.671875 -157.421875 C 356.671875 -150.046875 356.46875 -145.128906 356.0625 -142.671875 Z M 130.375 -202.9375 L 250.28125 -202.9375 C 247.820312 -219.332031 241.363281 -231.9375 230.90625 -240.75 C 220.457031 -249.5625 207.035156 -253.96875 190.640625 -253.96875 C 172.597656 -253.96875 158.242188 -249.253906 147.578125 -239.828125 C 136.921875 -230.398438 131.1875 -218.101562 130.375 -202.9375 Z M 130.375 -202.9375 "/></g></g></g><g fill="#838284" fill-opacity="1"><g transform="translate(1399.328735, 534.166281)"><g><path d="M 36.890625 0 L 36.890625 -315.46875 L 145.75 -315.46875 L 145.75 -269.96875 L 146.96875 -269.96875 C 147.789062 -271.601562 149.125 -273.648438 150.96875 -276.109375 C 152.8125 -278.566406 156.804688 -282.867188 162.953125 -289.015625 C 169.109375 -295.171875 175.671875 -300.707031 182.640625 -305.625 C 189.609375 -310.550781 198.625 -314.957031 209.6875 -318.84375 C 220.757812 -322.738281 232.035156 -324.6875 243.515625 -324.6875 C 255.410156 -324.6875 267.097656 -323.046875 278.578125 -319.765625 C 290.054688 -316.492188 298.457031 -313.21875 303.78125 -309.9375 L 312.390625 -305.015625 L 266.890625 -212.78125 C 253.359375 -224.257812 234.5 -230 210.3125 -230 C 197.195312 -230 185.921875 -227.128906 176.484375 -221.390625 C 167.054688 -215.648438 160.394531 -208.675781 156.5 -200.46875 C 152.601562 -192.269531 149.835938 -185.300781 148.203125 -179.5625 C 146.566406 -173.820312 145.75 -169.3125 145.75 -166.03125 L 145.75 0 Z M 36.890625 0 "/></g></g></g><g fill="#838284" fill-opacity="1"><g transform="translate(1647.748959, 534.166281)"><g><path d="M 174.03125 -324.6875 C 192.070312 -324.6875 209.90625 -322.632812 227.53125 -318.53125 C 245.15625 -314.4375 258.273438 -310.34375 266.890625 -306.25 L 279.796875 -300.09375 L 244.140625 -228.765625 C 219.535156 -241.878906 196.164062 -248.4375 174.03125 -248.4375 C 161.726562 -248.4375 153.015625 -247.101562 147.890625 -244.4375 C 142.765625 -241.78125 140.203125 -236.757812 140.203125 -229.375 C 140.203125 -227.738281 140.40625 -226.097656 140.8125 -224.453125 C 141.226562 -222.816406 142.050781 -221.28125 143.28125 -219.84375 C 144.507812 -218.40625 145.632812 -217.175781 146.65625 -216.15625 C 147.6875 -215.132812 149.429688 -214.003906 151.890625 -212.765625 C 154.347656 -211.535156 156.296875 -210.613281 157.734375 -210 C 159.171875 -209.382812 161.53125 -208.460938 164.8125 -207.234375 C 168.09375 -206.003906 170.550781 -205.082031 172.1875 -204.46875 C 173.820312 -203.851562 176.585938 -202.929688 180.484375 -201.703125 C 184.378906 -200.472656 187.351562 -199.65625 189.40625 -199.25 C 202.113281 -195.550781 213.179688 -191.445312 222.609375 -186.9375 C 232.035156 -182.4375 241.976562 -176.289062 252.4375 -168.5 C 262.894531 -160.707031 270.992188 -150.863281 276.734375 -138.96875 C 282.472656 -127.082031 285.34375 -113.554688 285.34375 -98.390625 C 285.34375 -26.648438 235.53125 9.21875 135.90625 9.21875 C 113.351562 9.21875 91.929688 5.734375 71.640625 -1.234375 C 51.347656 -8.203125 36.691406 -15.171875 27.671875 -22.140625 L 14.140625 -33.203125 L 58.421875 -107.609375 C 61.703125 -104.742188 66.003906 -101.363281 71.328125 -97.46875 C 76.660156 -93.570312 86.296875 -88.238281 100.234375 -81.46875 C 114.171875 -74.707031 126.265625 -71.328125 136.515625 -71.328125 C 159.066406 -71.328125 170.34375 -78.914062 170.34375 -94.09375 C 170.34375 -101.0625 167.472656 -106.488281 161.734375 -110.375 C 155.992188 -114.269531 146.253906 -118.675781 132.515625 -123.59375 C 118.785156 -128.519531 108.023438 -133.035156 100.234375 -137.140625 C 80.554688 -147.390625 64.976562 -158.96875 53.5 -171.875 C 42.019531 -184.789062 36.28125 -201.910156 36.28125 -223.234375 C 36.28125 -255.203125 48.679688 -280.101562 73.484375 -297.9375 C 98.285156 -315.769531 131.800781 -324.6875 174.03125 -324.6875 Z M 174.03125 -324.6875 "/></g></g></g><g fill="#838284" fill-opacity="1"><g transform="translate(1892.479688, 534.166281)"><g><path d="M 47.34375 -491.34375 C 60.0625 -504.050781 75.234375 -510.40625 92.859375 -510.40625 C 110.484375 -510.40625 125.648438 -504.050781 138.359375 -491.34375 C 151.066406 -478.632812 157.421875 -463.460938 157.421875 -445.828125 C 157.421875 -428.203125 151.066406 -413.035156 138.359375 -400.328125 C 125.648438 -387.617188 110.484375 -381.265625 92.859375 -381.265625 C 75.234375 -381.265625 60.0625 -387.617188 47.34375 -400.328125 C 34.632812 -413.035156 28.28125 -428.203125 28.28125 -445.828125 C 28.28125 -463.460938 34.632812 -478.632812 47.34375 -491.34375 Z M 36.890625 -315.46875 L 36.890625 0 L 145.75 0 L 145.75 -315.46875 Z M 36.890625 -315.46875 "/></g></g></g><g fill="#838284" fill-opacity="1"><g transform="translate(2020.374931, 534.166281)"><g><path d="M 58.421875 -39.046875 C 28.898438 -71.234375 14.140625 -110.691406 14.140625 -157.421875 C 14.140625 -204.160156 28.898438 -243.722656 58.421875 -276.109375 C 87.941406 -308.492188 125.453125 -324.6875 170.953125 -324.6875 C 212.773438 -324.6875 247.210938 -311.570312 274.265625 -285.34375 L 274.265625 -528.859375 L 383.109375 -528.859375 L 383.109375 0 L 275.5 0 L 275.5 -35.671875 L 274.265625 -35.671875 C 247.210938 -5.742188 212.773438 9.21875 170.953125 9.21875 C 125.453125 9.21875 87.941406 -6.867188 58.421875 -39.046875 Z M 150.96875 -210.921875 C 136.820312 -196.984375 129.75 -179.148438 129.75 -157.421875 C 129.75 -135.691406 136.515625 -117.960938 150.046875 -104.234375 C 163.578125 -90.503906 181.410156 -83.640625 203.546875 -83.640625 C 224.867188 -83.640625 242.394531 -90.609375 256.125 -104.546875 C 269.863281 -118.484375 276.734375 -136.109375 276.734375 -157.421875 C 276.734375 -179.148438 269.660156 -196.984375 255.515625 -210.921875 C 241.367188 -224.867188 224.046875 -231.84375 203.546875 -231.84375 C 182.640625 -231.84375 165.113281 -224.867188 150.96875 -210.921875 Z M 150.96875 -210.921875 "/></g></g></g><g fill="#838284" fill-opacity="1"><g transform="translate(2382.556018, 534.166281)"><g><path d="M 356.0625 -142.671875 L 127.296875 -142.671875 C 127.296875 -120.535156 134.46875 -104.132812 148.8125 -93.46875 C 163.164062 -82.8125 178.75 -77.484375 195.5625 -77.484375 C 213.1875 -77.484375 227.125 -79.835938 237.375 -84.546875 C 247.625 -89.265625 259.304688 -98.59375 272.421875 -112.53125 L 351.140625 -73.171875 C 318.335938 -18.242188 263.8125 9.21875 187.5625 9.21875 C 140 9.21875 99.203125 -7.070312 65.171875 -39.65625 C 31.148438 -72.25 14.140625 -111.503906 14.140625 -157.421875 C 14.140625 -203.335938 31.148438 -242.691406 65.171875 -275.484375 C 99.203125 -308.285156 140 -324.6875 187.5625 -324.6875 C 237.570312 -324.6875 278.257812 -310.234375 309.625 -281.328125 C 340.988281 -252.429688 356.671875 -211.128906 356.671875 -157.421875 C 356.671875 -150.046875 356.46875 -145.128906 356.0625 -142.671875 Z M 130.375 -202.9375 L 250.28125 -202.9375 C 247.820312 -219.332031 241.363281 -231.9375 230.90625 -240.75 C 220.457031 -249.5625 207.035156 -253.96875 190.640625 -253.96875 C 172.597656 -253.96875 158.242188 -249.253906 147.578125 -239.828125 C 136.921875 -230.398438 131.1875 -218.101562 130.375 -202.9375 Z M 130.375 -202.9375 "/></g></g></g><g fill="#838284" fill-opacity="1"><g transform="translate(935.429686, 718.007673)"><g><path d="M 97.21875 -110.078125 C 99.882812 -108.628906 101.21875 -106.398438 101.21875 -103.390625 C 101.21875 -101.390625 100.550781 -99.550781 99.21875 -97.875 C 97.882812 -96.09375 96.046875 -95.203125 93.703125 -95.203125 C 92.140625 -95.203125 90.632812 -95.59375 89.1875 -96.375 C 82.289062 -100.269531 74.832031 -102.21875 66.8125 -102.21875 C 58.457031 -102.21875 51.078125 -100.378906 44.671875 -96.703125 C 38.273438 -93.035156 33.296875 -87.890625 29.734375 -81.265625 C 26.171875 -74.640625 24.390625 -67.039062 24.390625 -58.46875 C 24.390625 -49.21875 26.222656 -41.25 29.890625 -34.5625 C 33.566406 -27.882812 38.632812 -22.789062 45.09375 -19.28125 C 51.550781 -15.78125 58.789062 -14.03125 66.8125 -14.03125 C 75.050781 -14.03125 82.507812 -16.035156 89.1875 -20.046875 C 90.53125 -20.710938 91.976562 -21.046875 93.53125 -21.046875 C 95.988281 -21.046875 97.941406 -20.097656 99.390625 -18.203125 C 100.722656 -16.535156 101.390625 -14.753906 101.390625 -12.859375 C 101.390625 -11.523438 101.023438 -10.269531 100.296875 -9.09375 C 99.578125 -7.925781 98.601562 -7.007812 97.375 -6.34375 C 93.03125 -3.894531 88.15625 -1.945312 82.75 -0.5 C 77.351562 0.945312 72.039062 1.671875 66.8125 1.671875 C 56.007812 1.671875 46.070312 -0.71875 37 -5.5 C 27.925781 -10.289062 20.6875 -17.253906 15.28125 -26.390625 C 9.882812 -35.523438 7.1875 -46.21875 7.1875 -58.46875 C 7.1875 -69.707031 9.773438 -79.863281 14.953125 -88.9375 C 20.128906 -98.019531 27.253906 -105.148438 36.328125 -110.328125 C 45.398438 -115.503906 55.5625 -118.09375 66.8125 -118.09375 C 77.613281 -118.09375 87.75 -115.421875 97.21875 -110.078125 Z M 97.21875 -110.078125 "/></g></g></g><g fill="#838284" fill-opacity="1"><g transform="translate(1108.806465, 718.007673)"><g><path d="M 55.453125 -89.53125 C 58.347656 -89.53125 60.851562 -88.773438 62.96875 -87.265625 C 65.082031 -85.765625 66.140625 -83.898438 66.140625 -81.671875 C 66.140625 -79.003906 65.441406 -76.972656 64.046875 -75.578125 C 62.660156 -74.191406 60.96875 -73.5 58.96875 -73.5 C 57.957031 -73.5 56.453125 -73.832031 54.453125 -74.5 C 52.109375 -75.28125 50.269531 -75.671875 48.9375 -75.671875 C 45.488281 -75.671875 42.117188 -74.472656 38.828125 -72.078125 C 35.546875 -69.679688 32.875 -66.394531 30.8125 -62.21875 C 28.757812 -58.039062 27.734375 -53.390625 27.734375 -48.265625 L 27.734375 -8.015625 C 27.734375 -5.785156 26.976562 -3.890625 25.46875 -2.328125 C 23.96875 -0.773438 22.046875 0 19.703125 0 C 17.367188 0 15.476562 -0.75 14.03125 -2.25 C 12.582031 -3.757812 11.859375 -5.679688 11.859375 -8.015625 L 11.859375 -79.5 C 11.859375 -81.726562 12.609375 -83.625 14.109375 -85.1875 C 15.617188 -86.75 17.484375 -87.53125 19.703125 -87.53125 C 22.046875 -87.53125 23.96875 -86.75 25.46875 -85.1875 C 26.976562 -83.625 27.734375 -81.726562 27.734375 -79.5 L 27.734375 -70.984375 C 30.179688 -76.441406 33.851562 -80.867188 38.75 -84.265625 C 43.644531 -87.660156 49.210938 -89.414062 55.453125 -89.53125 Z M 55.453125 -89.53125 "/></g></g></g><g fill="#838284" fill-opacity="1"><g transform="translate(1244.602066, 718.007673)"><g><path d="M 88.6875 -47.109375 C 88.582031 -45.097656 87.75 -43.394531 86.1875 -42 C 84.625 -40.613281 82.785156 -39.921875 80.671875 -39.921875 L 21.875 -39.921875 C 22.65625 -31.796875 25.742188 -25.28125 31.140625 -20.375 C 36.546875 -15.476562 43.144531 -13.03125 50.9375 -13.03125 C 56.289062 -13.03125 60.632812 -13.804688 63.96875 -15.359375 C 67.3125 -16.921875 70.265625 -18.925781 72.828125 -21.375 C 74.492188 -22.382812 76.109375 -22.890625 77.671875 -22.890625 C 79.566406 -22.890625 81.148438 -22.21875 82.421875 -20.875 C 83.703125 -19.539062 84.34375 -17.984375 84.34375 -16.203125 C 84.34375 -13.859375 83.234375 -11.742188 81.015625 -9.859375 C 77.785156 -6.628906 73.492188 -3.898438 68.140625 -1.671875 C 62.796875 0.554688 57.34375 1.671875 51.78125 1.671875 C 42.757812 1.671875 34.820312 -0.21875 27.96875 -4 C 21.125 -7.789062 15.835938 -13.082031 12.109375 -19.875 C 8.378906 -26.664062 6.515625 -34.347656 6.515625 -42.921875 C 6.515625 -52.273438 8.4375 -60.488281 12.28125 -67.5625 C 16.125 -74.632812 21.1875 -80.0625 27.46875 -83.84375 C 33.757812 -87.632812 40.523438 -89.53125 47.765625 -89.53125 C 54.898438 -89.53125 61.582031 -87.691406 67.8125 -84.015625 C 74.050781 -80.335938 79.0625 -75.269531 82.84375 -68.8125 C 86.632812 -62.351562 88.582031 -55.117188 88.6875 -47.109375 Z M 47.765625 -74.828125 C 41.535156 -74.828125 36.132812 -73.070312 31.5625 -69.5625 C 27 -66.0625 23.992188 -60.632812 22.546875 -53.28125 L 71.828125 -53.28125 L 71.828125 -54.625 C 71.265625 -60.519531 68.617188 -65.359375 63.890625 -69.140625 C 59.160156 -72.929688 53.785156 -74.828125 47.765625 -74.828125 Z M 47.765625 -74.828125 "/></g></g></g><g fill="#838284" fill-opacity="1"><g transform="translate(1406.621011, 718.007673)"><g><path d="M 82.84375 -88.6875 C 85.1875 -88.6875 87.109375 -87.9375 88.609375 -86.4375 C 90.109375 -84.9375 90.859375 -82.960938 90.859375 -80.515625 L 90.859375 -8.015625 C 90.859375 -5.785156 90.109375 -3.890625 88.609375 -2.328125 C 87.109375 -0.773438 85.1875 0 82.84375 0 C 80.507812 0 78.617188 -0.75 77.171875 -2.25 C 75.722656 -3.757812 75 -5.679688 75 -8.015625 L 75 -12.359375 C 72.101562 -8.460938 68.148438 -5.148438 63.140625 -2.421875 C 58.128906 0.304688 52.726562 1.671875 46.9375 1.671875 C 39.363281 1.671875 32.484375 -0.273438 26.296875 -4.171875 C 20.117188 -8.066406 15.273438 -13.492188 11.765625 -20.453125 C 8.265625 -27.421875 6.515625 -35.242188 6.515625 -43.921875 C 6.515625 -52.609375 8.265625 -60.429688 11.765625 -67.390625 C 15.273438 -74.359375 20.09375 -79.789062 26.21875 -83.6875 C 32.34375 -87.582031 39.082031 -89.53125 46.4375 -89.53125 C 52.332031 -89.53125 57.8125 -88.300781 62.875 -85.84375 C 67.945312 -83.394531 71.988281 -80.28125 75 -76.5 L 75 -80.515625 C 75 -82.847656 75.722656 -84.789062 77.171875 -86.34375 C 78.617188 -87.90625 80.507812 -88.6875 82.84375 -88.6875 Z M 48.765625 -13.03125 C 54.003906 -13.03125 58.65625 -14.363281 62.71875 -17.03125 C 66.78125 -19.707031 69.953125 -23.382812 72.234375 -28.0625 C 74.523438 -32.738281 75.671875 -38.023438 75.671875 -43.921875 C 75.671875 -49.710938 74.523438 -54.945312 72.234375 -59.625 C 69.953125 -64.300781 66.78125 -68.003906 62.71875 -70.734375 C 58.65625 -73.460938 54.003906 -74.828125 48.765625 -74.828125 C 43.535156 -74.828125 38.890625 -73.488281 34.828125 -70.8125 C 30.765625 -68.144531 27.585938 -64.472656 25.296875 -59.796875 C 23.015625 -55.117188 21.875 -49.828125 21.875 -43.921875 C 21.875 -38.023438 23.015625 -32.738281 25.296875 -28.0625 C 27.585938 -23.382812 30.765625 -19.707031 34.828125 -17.03125 C 38.890625 -14.363281 43.535156 -13.03125 48.765625 -13.03125 Z M 48.765625 -13.03125 "/></g></g></g><g fill="#838284" fill-opacity="1"><g transform="translate(1575.989122, 718.007673)"><g><path d="M 35.578125 -71.984375 L 35.578125 -22.21875 C 35.578125 -16.644531 38.082031 -13.859375 43.09375 -13.859375 C 43.875 -13.859375 44.929688 -14.050781 46.265625 -14.4375 C 47.597656 -14.832031 48.65625 -15.03125 49.4375 -15.03125 C 50.882812 -15.03125 52.109375 -14.414062 53.109375 -13.1875 C 54.117188 -11.96875 54.625 -10.410156 54.625 -8.515625 C 54.625 -6.179688 53.285156 -4.175781 50.609375 -2.5 C 47.941406 -0.832031 44.9375 0 41.59375 0 C 37.914062 0 34.546875 -0.390625 31.484375 -1.171875 C 28.421875 -1.953125 25.691406 -3.925781 23.296875 -7.09375 C 20.898438 -10.269531 19.703125 -15.085938 19.703125 -21.546875 L 19.703125 -71.984375 L 10.015625 -71.984375 C 7.898438 -71.984375 6.144531 -72.679688 4.75 -74.078125 C 3.363281 -75.472656 2.671875 -77.226562 2.671875 -79.34375 C 2.671875 -81.457031 3.363281 -83.179688 4.75 -84.515625 C 6.144531 -85.847656 7.898438 -86.515625 10.015625 -86.515625 L 19.703125 -86.515625 L 19.703125 -100.546875 C 19.703125 -102.773438 20.453125 -104.671875 21.953125 -106.234375 C 23.460938 -107.796875 25.390625 -108.578125 27.734375 -108.578125 C 29.953125 -108.578125 31.8125 -107.796875 33.3125 -106.234375 C 34.820312 -104.671875 35.578125 -102.773438 35.578125 -100.546875 L 35.578125 -86.515625 L 49.4375 -86.515625 C 51.550781 -86.515625 53.304688 -85.816406 54.703125 -84.421875 C 56.097656 -83.035156 56.796875 -81.285156 56.796875 -79.171875 C 56.796875 -77.054688 56.097656 -75.328125 54.703125 -73.984375 C 53.304688 -72.648438 51.550781 -71.984375 49.4375 -71.984375 Z M 35.578125 -71.984375 "/></g></g></g><g fill="#838284" fill-opacity="1"><g transform="translate(1706.272823, 718.007673)"><g><path d="M 26.890625 -8.015625 C 26.890625 -5.785156 26.132812 -3.890625 24.625 -2.328125 C 23.125 -0.773438 21.207031 0 18.875 0 C 16.644531 0 14.78125 -0.773438 13.28125 -2.328125 C 11.78125 -3.890625 11.03125 -5.785156 11.03125 -8.015625 L 11.03125 -80.34375 C 11.03125 -82.570312 11.78125 -84.460938 13.28125 -86.015625 C 14.78125 -87.578125 16.644531 -88.359375 18.875 -88.359375 C 21.207031 -88.359375 23.125 -87.578125 24.625 -86.015625 C 26.132812 -84.460938 26.890625 -82.570312 26.890625 -80.34375 Z M 18.875 -99.390625 C 15.644531 -99.390625 13.332031 -99.972656 11.9375 -101.140625 C 10.550781 -102.304688 9.859375 -104.171875 9.859375 -106.734375 L 9.859375 -109.40625 C 9.859375 -112.082031 10.609375 -113.972656 12.109375 -115.078125 C 13.617188 -116.191406 15.929688 -116.75 19.046875 -116.75 C 22.160156 -116.75 24.410156 -116.164062 25.796875 -115 C 27.191406 -113.832031 27.890625 -111.96875 27.890625 -109.40625 L 27.890625 -106.734375 C 27.890625 -104.054688 27.164062 -102.160156 25.71875 -101.046875 C 24.28125 -99.941406 22 -99.390625 18.875 -99.390625 Z M 18.875 -99.390625 "/></g></g></g><g fill="#838284" fill-opacity="1"><g transform="translate(1811.001365, 718.007673)"><g><path d="M 78.671875 -88.359375 C 80.785156 -88.359375 82.566406 -87.660156 84.015625 -86.265625 C 85.460938 -84.878906 86.1875 -83.238281 86.1875 -81.34375 C 86.1875 -80.34375 85.796875 -78.953125 85.015625 -77.171875 L 53.28125 -5.015625 C 52.613281 -3.566406 51.664062 -2.394531 50.4375 -1.5 C 49.21875 -0.613281 47.882812 -0.113281 46.4375 0 C 44.65625 0.21875 43.007812 -0.113281 41.5 -1 C 40 -1.894531 38.859375 -3.234375 38.078125 -5.015625 L 6.34375 -77.171875 C 5.789062 -78.835938 5.515625 -80.226562 5.515625 -81.34375 C 5.515625 -83.125 6.238281 -84.738281 7.6875 -86.1875 C 9.132812 -87.632812 11.023438 -88.359375 13.359375 -88.359375 C 15.035156 -88.359375 16.539062 -87.941406 17.875 -87.109375 C 19.207031 -86.273438 20.265625 -85.019531 21.046875 -83.34375 L 46.265625 -24.71875 L 71.484375 -83.34375 C 73.046875 -86.6875 75.441406 -88.359375 78.671875 -88.359375 Z M 78.671875 -88.359375 "/></g></g></g><g fill="#838284" fill-opacity="1"><g transform="translate(1969.345655, 718.007673)"><g><path d="M 88.6875 -47.109375 C 88.582031 -45.097656 87.75 -43.394531 86.1875 -42 C 84.625 -40.613281 82.785156 -39.921875 80.671875 -39.921875 L 21.875 -39.921875 C 22.65625 -31.796875 25.742188 -25.28125 31.140625 -20.375 C 36.546875 -15.476562 43.144531 -13.03125 50.9375 -13.03125 C 56.289062 -13.03125 60.632812 -13.804688 63.96875 -15.359375 C 67.3125 -16.921875 70.265625 -18.925781 72.828125 -21.375 C 74.492188 -22.382812 76.109375 -22.890625 77.671875 -22.890625 C 79.566406 -22.890625 81.148438 -22.21875 82.421875 -20.875 C 83.703125 -19.539062 84.34375 -17.984375 84.34375 -16.203125 C 84.34375 -13.859375 83.234375 -11.742188 81.015625 -9.859375 C 77.785156 -6.628906 73.492188 -3.898438 68.140625 -1.671875 C 62.796875 0.554688 57.34375 1.671875 51.78125 1.671875 C 42.757812 1.671875 34.820312 -0.21875 27.96875 -4 C 21.125 -7.789062 15.835938 -13.082031 12.109375 -19.875 C 8.378906 -26.664062 6.515625 -34.347656 6.515625 -42.921875 C 6.515625 -52.273438 8.4375 -60.488281 12.28125 -67.5625 C 16.125 -74.632812 21.1875 -80.0625 27.46875 -83.84375 C 33.757812 -87.632812 40.523438 -89.53125 47.765625 -89.53125 C 54.898438 -89.53125 61.582031 -87.691406 67.8125 -84.015625 C 74.050781 -80.335938 79.0625 -75.269531 82.84375 -68.8125 C 86.632812 -62.351562 88.582031 -55.117188 88.6875 -47.109375 Z M 47.765625 -74.828125 C 41.535156 -74.828125 36.132812 -73.070312 31.5625 -69.5625 C 27 -66.0625 23.992188 -60.632812 22.546875 -53.28125 L 71.828125 -53.28125 L 71.828125 -54.625 C 71.265625 -60.519531 68.617188 -65.359375 63.890625 -69.140625 C 59.160156 -72.929688 53.785156 -74.828125 47.765625 -74.828125 Z M 47.765625 -74.828125 "/></g></g></g></svg>